<svg id="base" xmlns="http://www.w3.org/2000/svg" viewBox="0 0 33 50" width="33px" height="50px"><defs><style>.cls-1{fill:#999;}</style></defs><title>icon_hosho</title><path class="cls-1" d="M1,0A.86.86,0,0,0,.12.87V49.14A.86.86,0,0,0,1,50H32.15a.81.81,0,0,0,.73-.78V.86A.86.86,0,0,0,32,0H1Zm.89,1.72H31.15V48.28H1.84ZM7,4.31V6a.86.86,0,0,0,.86.86H25.12A.86.86,0,0,0,26,6V4.31a.86.86,0,0,0-.86-.86H7.88A.86.86,0,0,0,7,4.31ZM7,9.48v1.72a.86.86,0,0,0,.86.86H25.12a.86.86,0,0,0,.86-.86V9.48a.86.86,0,0,0-.86-.86H7.88A.86.86,0,0,0,7,9.48Zm.86,7.76a.86.86,0,1,0,0,1.72H25.12a.86.86,0,1,0,0-1.72Zm0,3.45a.86.86,0,1,0,0,1.72H25.12a.86.86,0,1,0,0-1.72Zm0,3.45a.86.86,0,1,0,0,1.72H25.12a.86.86,0,1,0,0-1.72ZM16.5,31a4.32,4.32,0,0,0-4.31,4.31,4.27,4.27,0,0,0,.37,1.73L10.5,43.72a.86.86,0,0,0,1.14,1.06l1.4-.56,1.4.56a.86.86,0,0,0,1.17-.63l.88-4.39.88,4.39a.85.85,0,0,0,1.27.59l1.3-.52,1.21.48a.87.87,0,0,0,1.33-1l-2.1-6.5a4.27,4.27,0,0,0,.42-1.85A4.32,4.32,0,0,0,16.5,31Zm0,1.72a2.59,2.59,0,1,1-2.59,2.59A2.57,2.57,0,0,1,16.5,32.77Zm-2.65,6a4.32,4.32,0,0,0,1,.58l-.69,3.47-.76-.3a.86.86,0,0,0-.64,0l0,0Zm5.24,0,1.2,3.7h0a.86.86,0,0,0-.64,0l-.76.3-.69-3.46a4.33,4.33,0,0,0,.92-.53Z"/></svg>