<svg id="base" xmlns="http://www.w3.org/2000/svg" viewBox="0 0 55 50" width="55px" height="50px"><defs><style>.cls-1{fill:#999;}</style></defs><title>icon_shuri</title><path class="cls-1" d="M54.79,25V18.23A6.82,6.82,0,0,0,48,11.41H7A6.82,6.82,0,0,0,.21,18.23V25H13.85v4.58H.21v18.2A2.27,2.27,0,0,0,2.48,50h50a2.27,2.27,0,0,0,2.27-2.27V29.53H41.15V25Zm-16,9.17H36.46a9.25,9.25,0,0,1-.92,2.26l1.83,1.81-3.2,3.17-1.83-1.81-2.28.91v2.72h-4.8V40.76L23,39.85l-1.82,1.83L18,38.24l1.81-1.83a9.41,9.41,0,0,1-.9-2.29H16.2V29.53h2.32a8.88,8.88,0,0,1,.92-2.26l-1.83-1.82,3.21-3.17,1.83,1.81,2.29-.9V20.47h4.59v2.45l2.26.92L33.6,22l3.16,3.2L35,27a9.05,9.05,0,0,1,.91,2.29H38.8v4.8Z"/><circle class="cls-1" cx="27.5" cy="31.84" r="4.55"/><path class="cls-1" d="M20.68,4.48H34.32V9.06h4.59V2.27A2.28,2.28,0,0,0,36.63,0H18.47A2.27,2.27,0,0,0,16.2,2.27V9.06h4.48Z"/></svg>