<svg xmlns="http://www.w3.org/2000/svg" viewBox="0 0 32 32" width="32px" height="32px"><defs><style>.cls-1{fill:#00a99d;}</style></defs><title>icon_loupe</title><g id="icon_loupe" data-name="icon_loupe"><path class="cls-1" d="M28.2,22.16A13,13,0,1,0,9.84,3.8a12.73,12.73,0,0,0-2,15.67.55.55,0,0,1-.08.65L1.19,26.74C-.13,28.06-.45,29.91.72,31.07l.2.2c1.17,1.17,3,.86,4.33-.46l6.61-6.61a.55.55,0,0,1,.66-.09A12.73,12.73,0,0,0,28.2,22.16Zm-16-2.4a9.59,9.59,0,1,1,13.57,0A9.6,9.6,0,0,1,12.24,19.76Z"/><path class="cls-1" d="M13.07,12.21a1.34,1.34,0,0,1-1.23-1.86A8.45,8.45,0,0,1,22.89,5.86a1.34,1.34,0,1,1-1,2.47,5.76,5.76,0,0,0-7.54,3.06A1.34,1.34,0,0,1,13.07,12.21Z"/></g></svg>