<svg id="base" xmlns="http://www.w3.org/2000/svg" viewBox="0 0 50 50" width="50px" height="50px"><defs><style>.cls-1{fill:#999;}</style></defs><title>icon_kumitate</title><path class="cls-1" d="M35.3,27.75a2,2,0,0,0-1.77-.54,2,2,0,0,0-1,.57l-1.67,1.67L28.31,27,36,19.28a10,10,0,0,0,4,.81h0A10,10,0,0,0,49.59,7.22.59.59,0,0,0,49.44,7a.61.61,0,0,0-.86,0L42.25,13.3a10.91,10.91,0,0,1-3.11-2.44,10.92,10.92,0,0,1-2.45-3.1L43,1.41a.61.61,0,0,0,.06-.79.63.63,0,0,0-.34-.22A10.09,10.09,0,0,0,40,0a10,10,0,0,0-9.23,14L23,21.69l-7.86-7.86,0,0L11.58,7.64a.84.84,0,0,0-.25-.27L5.27,3.17a.84.84,0,0,0-1.08.1L1.5,6A.84.84,0,0,0,1.4,7l4.2,6.06a.84.84,0,0,0,.27.25L12,16.93l0,0,7.85,7.85L14,30.72A10.05,10.05,0,0,0,.41,42.79a.61.61,0,0,0,1,.26L7.75,36.7a10.92,10.92,0,0,1,3.11,2.44,10.92,10.92,0,0,1,2.45,3.1L7,48.59a.61.61,0,0,0-.06.79.63.63,0,0,0,.34.22A10.05,10.05,0,0,0,19.28,36l5.91-5.91,2.5,2.5L26,34.25a2,2,0,0,0-.57,1A2,2,0,0,0,26,37.06l12,12a2,2,0,0,0,1,.57,2,2,0,0,0,1.77-.54l6.53-6.53a2,2,0,0,0,.54-1.77,2,2,0,0,0-.57-1Zm4.27,17.07a1.1,1.1,0,0,1-1.56,0l-7.74-7.74a1.1,1.1,0,1,1,1.56-1.56l7.74,7.74A1.1,1.1,0,0,1,39.57,44.82Zm3.5-3.5a1.1,1.1,0,0,1-1.56,0l-7.74-7.74A1.1,1.1,0,1,1,35.33,32l7.74,7.74A1.1,1.1,0,0,1,43.07,41.32Z"/></svg>