<svg id="base" xmlns="http://www.w3.org/2000/svg" viewBox="0 0 61 50" width="61px" height="50px"><defs><style>.cls-1{fill:#999;}</style></defs><title>icon_care</title><path class="cls-1" d="M53.53,21.6l-14.14-12a13.08,13.08,0,0,0-8.48-3.12H18.09a6.77,6.77,0,0,1-4.62-1.82L8.52,0,1.14,12.26l5.12,4.93a18.34,18.34,0,0,1,3.19,4.08l1.25,2.18a8.76,8.76,0,0,0,7.6,4.4H34.54a2.85,2.85,0,0,0,2.83-2.67,2.76,2.76,0,0,0-2.76-2.86H24.85A2.85,2.85,0,0,1,22,19.66a2.76,2.76,0,0,1,2.76-2.86H34.89a9.44,9.44,0,0,1,6,2.18l8.79,7.32A3,3,0,0,0,53.94,26,3.09,3.09,0,0,0,53.53,21.6Z"/><path class="cls-1" d="M26.7,35.37A86.19,86.19,0,0,0,.39,47.09l2,2.91A82.63,82.63,0,0,1,27.63,38.79a125.86,125.86,0,0,1,33-4.21V31A129.39,129.39,0,0,0,26.7,35.37Z"/></svg>