<svg id="base" xmlns="http://www.w3.org/2000/svg" viewBox="0 0 60 30" width="60px" height="30px"><defs><style>.cls-1{fill:#999;}</style></defs><title>icon_guide</title><path class="cls-1" d="M46.82.38H13.18A4.39,4.39,0,0,0,8.79,4.77v10.3H51.21V4.77A4.39,4.39,0,0,0,46.82.38Z"/><path class="cls-1" d="M57.49,7.8a2.94,2.94,0,0,0-3.39,2.88V18H5.9V10.68A2.93,2.93,0,0,0,3,7.76a2.93,2.93,0,0,0-3,2.91V22.3a2.93,2.93,0,0,0,2.93,2.93H4.39v4.39H8.79V25.23H51.21v4.39h4.39V25.23H57a3,3,0,0,0,3-2.91V10.76A3,3,0,0,0,57.49,7.8Z"/></svg>