<svg id="base" xmlns="http://www.w3.org/2000/svg" viewBox="0 0 124 57" width="124px" height="57px"><defs><style>.cls-1{fill:#231815;}</style></defs><title>logo</title><path class="cls-1" d="M17.47,25.6c.4.14.74.06,1,.28a1.69,1.69,0,0,1,.74.6A7.42,7.42,0,0,1,20,28a2.6,2.6,0,0,0,.14,1.25,1.16,1.16,0,0,0,.39.33,1.25,1.25,0,0,0,1.11-.21c.4-.42.76-.83,1.14-1.16.21-.14.43-.21.56-.29a3.39,3.39,0,0,1,2.39,0c.22.08.49,0,.62.15s.35.33.55.56c.07,0,.21.05.27.05.34.2.27.63.41.9a.88.88,0,0,1,0,1.07c-.07.16-.14.36-.34.43a6.31,6.31,0,0,0-1.71.27,2.55,2.55,0,0,0-.9.95c-.2.43-.27.91-.47,1.33-.34,1.07-.2,2.24-.47,3.41a6.42,6.42,0,0,0,0,1.16c0,.07.07.07.13.07v.19c.14.16.21.35.42.49a.74.74,0,0,0,.39.14,1.88,1.88,0,0,0,1.24,0c.28-.06.55-.34.75-.41a2.12,2.12,0,0,1,2.6,1,1.61,1.61,0,0,1,0,1.29c-.2.3-.28.55-.61.69s-.4.22-.55.28c-.55.22-1.23,0-1.64.22s-.69,0-.95.19c-.56.21-1.23.07-1.78.27a1.36,1.36,0,0,0-.42.13c-.21.15-.33.36-.49.49a1.24,1.24,0,0,0-.12.61,10.29,10.29,0,0,0,.4,3.84,6,6,0,0,0,2.67,3.5c.49.33,1,.33,1.44.67a10.38,10.38,0,0,0,1.58,1.31c.33.19.41.62.61,1a1.55,1.55,0,0,1,0,1.56,1.22,1.22,0,0,1-.83.56,1.57,1.57,0,0,1-1.09,0,2.74,2.74,0,0,1-.67-.47,3.16,3.16,0,0,1-.9-.65,15,15,0,0,1-1-1.15,6.46,6.46,0,0,0-2.52-1.5c-.56-.2-1.17-.62-1.72-.28-.13.08-.42,0-.47.22a2.5,2.5,0,0,1-.69.94c0,.08-.07.23-.07.29a2.47,2.47,0,0,1-.63.52,3.15,3.15,0,0,0-.68.36c-.26.06-.53.06-.82.13a13,13,0,0,0-1.36.56c-.06.06-.14.06-.14.19a.7.7,0,0,0-.48.07,2.5,2.5,0,0,1-2.27.77,4.79,4.79,0,0,1-.68-.34,7.82,7.82,0,0,1-.6-.9,2.77,2.77,0,0,0-1.31-1.42,4.88,4.88,0,0,0-.82-.5,11.74,11.74,0,0,0-2-.55,4.26,4.26,0,0,1-1.29-.06,10.81,10.81,0,0,1-2.48-.67c-.27-.15-.61-.23-.95-.43H2.48a7.08,7.08,0,0,0-1.09-.63,2.14,2.14,0,0,1-.48-.47,8.56,8.56,0,0,1-.41-1,1.37,1.37,0,0,1,.06-.89,20.65,20.65,0,0,1,1.92-2.82A5,5,0,0,1,3,44.69c.36-.55.61-1,1-1.5,0-.07.09-.28.09-.36a1.39,1.39,0,0,0,0-1.78,2.66,2.66,0,0,0-1-.81c-.46-.35-1-.27-1.48-.61a3.85,3.85,0,0,1-.89-1.1,1.39,1.39,0,0,1,.05-1.3,15.49,15.49,0,0,1,1.09-1.78c.15-.14.15-.47.29-.76A4.41,4.41,0,0,1,3,33.46c.06-.05-.07-.26,0-.32.28-.29.28-.7.55-1a.94.94,0,0,0-.07-1.09c-.2-.27-.35-.67-.61-.75-.49-.19-.61-.61-1-.89a1.94,1.94,0,0,1-.62-.81,1.88,1.88,0,0,1,.07-1.31A2,2,0,0,1,2,26.21a1.24,1.24,0,0,1,1.29.15c.41.28,1,.34,1.37.63.89.53,1.92.46,2.81.92a2.15,2.15,0,0,1,.9.62c.26.28.73.34,1.08.5.14.06.41.06.54.13.29.14.57.27.83.41a4.93,4.93,0,0,1,.56.56.69.69,0,0,1,.34.27c.2.14.48.24.6.47.07,0,.19.07.28.07.08.28.34.19.54.35a1.21,1.21,0,0,0,1,.05,2.61,2.61,0,0,0,1.09-1.77,3.87,3.87,0,0,1,0-.9,9.67,9.67,0,0,1,.48-2.38,1,1,0,0,1,.62-.63A2,2,0,0,1,17.47,25.6ZM10.9,35.05c.35-.36.76-.55.95-.9a.51.51,0,0,0,0-.48c-.12-.12-.12-.26-.34-.41a5.48,5.48,0,0,0-2.12-.6,2.16,2.16,0,0,0-1.3.12c-.12.07-.33,0-.48.14s-.33.14-.33.34c-.15-.06-.2.09-.28.09a2.24,2.24,0,0,0-.54.53c-.41.68-.7,1.29-1.09,2a1.27,1.27,0,0,0,.06,1.24,3.67,3.67,0,0,0,1.1,1.16,15,15,0,0,1,3.82,2.3c.14.09.35.15.48.23a5.12,5.12,0,0,1,.41.74,1.08,1.08,0,0,0,.49.55c.12.14.06.41.2.55s.07.49.21.69.13.54.38.61a1.22,1.22,0,0,0,.9-.07c.43-.33.83-.74.56-1.23s-.28-.68-.41-1a13.5,13.5,0,0,1-.49-2.32,3.59,3.59,0,0,0-.6-1.39c-.27-.34-.69-.41-1-.68a2.7,2.7,0,0,1-.7-.55,3.71,3.71,0,0,0-.12-.41c-.21-.2-.28-.61-.06-.75S10.75,35.17,10.9,35.05Zm4.24,11.43a6.64,6.64,0,0,1-1,.69c-.49.26-1,.38-1.44.6-.14.07-.42.07-.54.26a1.06,1.06,0,0,1-.48.08c-1.24.28-2.62,0-2.88-1.29A2.65,2.65,0,0,1,9.11,45a1.43,1.43,0,0,0,0-1.11c-.13-.21,0-.61-.41-.74-.13,0-.25-.07-.39,0a13.82,13.82,0,0,0-1.37,1,4.85,4.85,0,0,0-.41.75,4.08,4.08,0,0,1-1.1,1.31c-.22.28-.15.62-.27.83a1.1,1.1,0,0,0,0,.94c.12.36.54.41.89.69s.6,0,.81.15a8,8,0,0,1,.75.55c.08.06.36.06.43.12s.34.2.46.3c.76.26,1.37.6,2.13.92.07.08.35.15.41.21.35.23.75.08,1.17.08.06,0,.06-.08.06-.14a2.63,2.63,0,0,1,1,.06,7.46,7.46,0,0,1,1,.9,1.12,1.12,0,0,0,1,.07A7.31,7.31,0,0,0,18.5,49a3.64,3.64,0,0,0-.29-2.67.42.42,0,0,0-.33-.34A3.23,3.23,0,0,0,15.14,46.48Zm4.52-7c.06-.06.12-.18.2-.26s0-.42.15-.61a18,18,0,0,0,1-3.3,1.12,1.12,0,0,0-.34-1.1c-.07,0-.2-.06-.28-.06a.77.77,0,0,0-1.09-.27A5.2,5.2,0,0,0,18,35.31a3.46,3.46,0,0,1-.34.35c-.28.55-.56,1-.83,1.5-.13.34-.07.75-.2,1.1a1.47,1.47,0,0,0,0,1.09c.13.28,0,.62.2.89.13.07.13.32.35.32-.08.15.08.23.08.28.19.14.34.44.55.58a.75.75,0,0,0,.8-.09,2.83,2.83,0,0,0,.07-.28,1.68,1.68,0,0,0,.34-.21,8.67,8.67,0,0,1,.69-1.36"/><path class="cls-1" d="M44.54,28.17A3.18,3.18,0,0,1,45,26.3a1.84,1.84,0,0,1,.32-.41c0-.07.07-.18.07-.26a2.52,2.52,0,0,1,1.15-.27.29.29,0,0,0,.07.15,1.56,1.56,0,0,1,1.47-.29,3.65,3.65,0,0,1,1.08.54,1.14,1.14,0,0,1,.41.54c0,.13,0,.33.12.48s.14.32.27.46.14.33.2.46a2.37,2.37,0,0,0,.74.88c.21.15.4.08.6.08.74.07,1.41-.34,2.14-.34a2.05,2.05,0,0,1,1.28.2.78.78,0,0,0,.33.14,3.53,3.53,0,0,0,1.48-.14,1.36,1.36,0,0,1,1.27,0c.2.14.48.14.68.25.47.28.53.74.73,1.09a2.13,2.13,0,0,1,.21,2,1.38,1.38,0,0,1-.69.56,3.82,3.82,0,0,1-2.12,0,1.13,1.13,0,0,1-.41-.23A2.31,2.31,0,0,0,55.08,32a7.91,7.91,0,0,0-1.6.17,1.31,1.31,0,0,0-.82.88,4.84,4.84,0,0,0,0,2.56c.34,1.14.39,2.34.82,3.48a23,23,0,0,0,1.12,2.82c.08.09.08.34.29.34a1.23,1.23,0,0,0,.12.54,3.77,3.77,0,0,1,.53.95c.08.26,0,.52.15.8a5.48,5.48,0,0,0,1.59,1.53c.08,0,.08.27.22.35a.77.77,0,0,1,.45.33A6,6,0,0,1,59,48c.06,0,.19.06.25.06,0,.22.22.22.35.35a3.86,3.86,0,0,1,1.14.95,1,1,0,0,1,0,1c-.08.18-.27.45-.39.73s-.42.38-.62.6a2.78,2.78,0,0,1-.34.06c-.14,0,0,.19-.14.19a1.52,1.52,0,0,0-1,.36c-.4.25-.88.05-1.35.05,0-.05,0-.13-.07-.13-.46.08-.66-.47-.85-.75-.15-.12-.08-.38-.08-.58.08,0,.13,0,.13-.08v-.27a2.91,2.91,0,0,1-.73-.87.79.79,0,0,0-1.14-.34c-.34.26-.26.74-.47.93s-.41.28-.61.49c-.87.66-2,.06-3,.4a1.51,1.51,0,0,0-.54.47c-.4.8-.54,1.67-.94,2.49a1.67,1.67,0,0,1-.8.64,2.17,2.17,0,0,1-1.61-.05c-.27-.12-.54,0-.75-.12A4.77,4.77,0,0,1,44.26,53a1.73,1.73,0,0,1,.08-1.27c.2-.35-.08-.61.06-.93a1,1,0,0,0-1.07-1.43c-.54.13-1,.55-1.47.28s-.94-1-1.47-1.57a3.66,3.66,0,0,0-.62-.25c-1.27-.06-2.48.41-3.69-.06-.12,0-.26-.2-.4-.33s-.07-.41-.12-.61a2.16,2.16,0,0,1-.07-1.74c.19-.41.67-.54.94-1,0-.07.38-.07.38-.28.14.07.22-.05.35-.05s0-.21.13-.21c.81-.07,1.48-.4,2.28-.4.08,0,.14-.08.14-.2a2,2,0,0,0,.68-.08c.86-.47,1.47-1.21,2.35-1.61a3.78,3.78,0,0,1,.87-.32,2.21,2.21,0,0,0,.73-.48c.48-.66,1.07-1.07,1.55-1.74.2-.2,0-.54.13-.75a1.45,1.45,0,0,0-.13-1.26c-.21-.34-.48-.82-.94-.68,0-.05,0-.14-.08-.14a4.78,4.78,0,0,0-1.33.68c-.13.14-.41.14-.55.27s-.52.27-.73.4c-.47.27-1,.34-1.47.6-.14.13-.34.19-.4.41-.14-.07-.21.06-.28.06a3.18,3.18,0,0,1-.87.74,2.4,2.4,0,0,1-.47.4c-.4.27-.54.82-.86,1.21a2.09,2.09,0,0,1-2.7.74c-.06-.07-.26-.07-.33-.14a5.75,5.75,0,0,1-.61-.87,3.76,3.76,0,0,1-.47-1,1.27,1.27,0,0,1,0-1.08c.14-.19.08-.47.21-.6,1-.74,1.81-1.54,2.8-2.22.09,0,.22-.13.35-.07a.42.42,0,0,1,.34-.27,10.62,10.62,0,0,1,2.41-.85,2.3,2.3,0,0,0,1-.08,7.6,7.6,0,0,0,1.27-.32c.15-.08,0-.22.15-.22a2.31,2.31,0,0,0,.92-.33,7,7,0,0,0,1.23-.73s.26-.08.33-.08c.2-.21.4-.4.59-.62.08,0,.22-.06.27-.06a2.5,2.5,0,0,0,.74-1.11c.07-.29-.13-.56-.27-.82s-.06-.42-.26-.47C45.27,29.24,44.61,28.85,44.54,28.17ZM44.82,44c-.17-.11-.33-.26-.56-.19s-.45.12-.65.26a2.9,2.9,0,0,0-.67.73,2.78,2.78,0,0,0-.08,1.61,1.09,1.09,0,0,0,.47.48,1.29,1.29,0,0,0,1.16-.07,1.07,1.07,0,0,0,.53-.54,2.26,2.26,0,0,0,.25-1.74A1.57,1.57,0,0,0,44.82,44Zm7.5.67a2.4,2.4,0,0,0-.8-1.21.82.82,0,0,0-1.27.4A6.54,6.54,0,0,0,49.78,47c.07.25.2.59.47.67a3,3,0,0,0,1.67.07c.06,0,.06-.07.06-.15h.28a.86.86,0,0,0,.34-.34c.06-.14.06-.34.19-.47a.72.72,0,0,0,0-.54,8.16,8.16,0,0,1-.47-1.61"/><path class="cls-1" d="M71.77,33.8c.27,0,.53,0,.73-.13a4.11,4.11,0,0,1,.42-.21,3.22,3.22,0,0,1,1-.47,4,4,0,0,0,.48-.2,4.08,4.08,0,0,1,.81-.39c.12-.16.47-.16.54-.28s.46-.06.59-.25a1.87,1.87,0,0,0,.41-.16c.41-.26.87-.18,1.21-.59h.25c.15-.27.4-.21.55-.27,1.74-.54,3.28-1.15,5-1.62a5.67,5.67,0,0,1,1.09,0c0,.06,0,.14.06.14a2.64,2.64,0,0,0,1.28-.08c.28-.13.6,0,.94-.2s.67-.11,1,0c.13.07.36,0,.47.14s.4.33.59.55,0,.47.15.67a1.87,1.87,0,0,1,0,1.47.56.56,0,0,1-.15.32,8.41,8.41,0,0,1-1,.75c-.2.15-.47.07-.73.07-1.28.08-2.56-.55-3.83-.12a15.93,15.93,0,0,0-3.5.93c-.33.13-.54.55-.81.87V35c-.26.13-.19.41-.26.55-.26,1.06-.06,2.14-.26,3.21A9.71,9.71,0,0,1,78.47,40c-.33.55-.52,1.14-.8,1.68a2.34,2.34,0,0,0,.07,1.61,2.08,2.08,0,0,0,1,1.13c.68.35,1.47-.05,2.15.22a11.1,11.1,0,0,1,1.41.47,1.58,1.58,0,0,0,1.19,0c.22-.08.49-.14.76-.21s.6-.26.87-.48a.83.83,0,0,1,1.07,0,3.71,3.71,0,0,1,.6.48c.14.21.2.33.34.54.34.53.14,1.14.28,1.74a4.63,4.63,0,0,1,0,2.28c-.14.28.06.69-.14.88s-.14.34-.28.47-.26.28-.4.34c-.34.2-.74,0-1.06.07,0-.07,0-.13-.07-.13H85.2c-.66-.67-1.15-1.43-1.75-2.16a2.05,2.05,0,0,0-.93-.41,8.36,8.36,0,0,0-3.23,0,19.09,19.09,0,0,0-2.68.67,5.8,5.8,0,0,1-2,.08c0-.08,0-.13-.07-.13H73.32c-.08,0-.08,0-.08.13a6.57,6.57,0,0,1-2.07-.08A11.22,11.22,0,0,1,68.9,49c-.55-.21-1.23,0-1.76-.39-.21-.23-.41-.4-.6-.59a3.07,3.07,0,0,1-.4-1.5,1.29,1.29,0,0,1,.12-.66,7,7,0,0,1,.67-.67,7.16,7.16,0,0,0,.68-.48,7.42,7.42,0,0,1,1-.47.71.71,0,0,1,.68.14c.34.33.61.53.94.81a5.13,5.13,0,0,1,.59.12,1,1,0,0,0,.89,0,1.35,1.35,0,0,0,.79-.74c.09-.07.13-.33.33-.4-.06-.12.09-.27.09-.33.27-.4.46-.79.74-1.21a1.78,1.78,0,0,0,.2-.32A3.39,3.39,0,0,0,74.32,40a8.23,8.23,0,0,0-.46-2.16,4.69,4.69,0,0,0-.67-.79,2.35,2.35,0,0,0-1-.34c-.46.06-.81.47-1.2.79-.94.62-1.68,1.22-2.62,1.89h-.28a2,2,0,0,1-.8.4,3.34,3.34,0,0,1-2.29,0,1.75,1.75,0,0,1-.73-.53c-.2-.28-.12-.67-.27-1A2.25,2.25,0,0,1,64,37c.07-.28.07-.68.34-.73s.33-.27.55-.4a3.21,3.21,0,0,0,.46-.49,4,4,0,0,1,1-.59,5.54,5.54,0,0,1,.68-.29c.93-.4,1.94.21,2.89-.2a2.49,2.49,0,0,0,.65-.2,2.68,2.68,0,0,1,1.22-.33"/><path class="cls-1" d="M93.89,34.28a11.63,11.63,0,0,1,.33-2.46,2.68,2.68,0,0,1,.68-1.47,1.94,1.94,0,0,1,.58-.33c.29-.06.62-.34,1-.34,0,.06,0,.12.07.12h.33c.13,0,0,.22.13.22a2.79,2.79,0,0,1,.34.07c.6.53,1.19,1.06,2,.74.28-.15.7-.21.88-.48a2.08,2.08,0,0,0,.35-.87V29c.07,0,.12,0,.12-.08v-.79s0,0-.12,0,.12,0,.12-.06c.14-.5-.2-.76-.26-1.16-.06-.14-.28-.19-.39-.19-.7-.27-1.49-.2-2.14-.47a1.2,1.2,0,0,1-.48-1.4,2.11,2.11,0,0,1,.74-.8,1.72,1.72,0,0,1,.68-.55c.39-.12.84,0,1.2-.24.11-.15.39-.07.6-.22.53-.32,1.32-.19,2-.39a4.59,4.59,0,0,1,2.52,0,2.78,2.78,0,0,1,.87.39c.26.22.72.25.93.59a2.05,2.05,0,0,1,.06,1.16c-.06.26-.27.47-.34.72s-.39.22-.59.35a.77.77,0,0,1-.54.12,2.32,2.32,0,0,0-.67.41,5,5,0,0,0-.39.52v.25c-.08,0-.12,0-.12.08a1.48,1.48,0,0,0,.25,1.08.9.9,0,0,0,1,.06c.59-.06,1.05.14,1.61.07,0,.07,0,.14,0,.14a3.84,3.84,0,0,0,1.2-.07c.28-.07.56,0,.81-.14a4.27,4.27,0,0,0,.75-.65c.59-1,.39-2,.59-3.09.07-.21,0-.45.13-.67s.27-.34.46-.47a6.79,6.79,0,0,1,2-.65c.45-.2.92.05,1.4.19a2.55,2.55,0,0,1,1.26,1.21,3.26,3.26,0,0,1,.06,1.4c-.06,0-.11,0-.11.08a2,2,0,0,0,0,.92,1.45,1.45,0,0,0,.39.66l.41.2c.33.13.74,0,1.08.13a16.44,16.44,0,0,1,1.78.43,10.26,10.26,0,0,0,3.41.57,1.94,1.94,0,0,1,.53,2.21c-.8,1.13-2.26,1-3.45.68a5.47,5.47,0,0,1-.75-.21c-.26-.13-.6-.13-.86-.28-.07-.05-.28-.11-.35-.19a7.44,7.44,0,0,0-1.06-.66,3.14,3.14,0,0,0-.59-.35.91.91,0,0,0-.48.14c-.26.14-.66.08-.93.21a5.43,5.43,0,0,0-.8.4,1.69,1.69,0,0,0-.54.73,1.52,1.52,0,0,0,0,1.33,1.84,1.84,0,0,0,1.39,1.07h.54c0,.06,0,.13.06.13a9.52,9.52,0,0,0,1.67-.47,1.48,1.48,0,0,1,.94.14c.2.13.53.08.73.26a1.69,1.69,0,0,1,.59,1.2,1.65,1.65,0,0,1,0,1.2c-.26.61-.19,1.2-.41,1.81a5.36,5.36,0,0,0,0,2.46,2,2,0,0,1-.2,1.19,2.9,2.9,0,0,1-.25.61c-.15.21-.33.13-.49.34h-.19c-.07,0-.07.07-.07.11a2.39,2.39,0,0,1-.93,0c-.34-.15-.79-.2-1-.48s-.33-.14-.47-.19c-.26-.21-.72,0-.46.34s.6.84.93,1.32c0,.07.07.27.07.33a2.48,2.48,0,0,1,.48.81,5.74,5.74,0,0,1,.66,1.46,15.63,15.63,0,0,0,.27,1.8,4.65,4.65,0,0,0,.39,1.27c.21.61,0,1.2.21,1.75a2.69,2.69,0,0,0,.2.85,3.77,3.77,0,0,0,.66,1.13c.2.15.4.33.59.33.41.14.74.35,1.15.49a1.75,1.75,0,0,1,.67.33,1.12,1.12,0,0,1-.22,1.53,1.62,1.62,0,0,1-1,.47,10.2,10.2,0,0,1-4.66.4c-.47-.14-.93-.21-1.39-.33s-.67-.27-1-.48a1.71,1.71,0,0,0-.32-.4.58.58,0,0,1-.15-.46c-.21-.69.07-1.33-.12-2a2,2,0,0,0-.69-1.2.74.74,0,0,0-.51,0c-.34.2-.6.41-.94.6a6.94,6.94,0,0,1-1.26.6,4.74,4.74,0,0,0-1.27.6c-.33.26-.74.26-1.07.48-.08.07-.27.07-.41.24s-.19.08-.34.15-.46-.07-.59.07-.47.07-.67.2a1.42,1.42,0,0,1-1.27,0,11.5,11.5,0,0,1-1.32-.42c-.13,0-.2-.12-.4-.17.08-.16-.15-.16-.21-.29a5,5,0,0,1-.39-.32c-.06,0-.2-.08-.27-.08a1.86,1.86,0,0,0-.67-.39,2.06,2.06,0,0,1-.6-1,3.85,3.85,0,0,1-.19-.47c-.15-.13,0-.39-.27-.59-.08,0-.08-.27-.13-.41-.29-.27-.59-.27-.88-.52a1.55,1.55,0,0,0-.6-.07,4.87,4.87,0,0,1-1.26-1,1.13,1.13,0,0,1-.12-.48,3.51,3.51,0,0,1,.18-1.66c.14-.4.14-.87.4-1.13a2.58,2.58,0,0,0,.54-2.49S97,43,97,43A5,5,0,0,1,97,40.83a3.27,3.27,0,0,1,.33-.68c.26-.26.48-.45.74-.73.87-.59,1.52-1.26,2.48-1.8A4.3,4.3,0,0,1,101.7,37c1.21-.2,2.34-.2,3.53-.48a6.9,6.9,0,0,0,1.07-.32,2.72,2.72,0,0,0,.88-.74c0-.08,0-.21,0-.27.24-.07.27-.27.35-.4a11.9,11.9,0,0,0,1.13-2.81,3.45,3.45,0,0,0,0-.85c0-.05-.07-.05-.13-.05a1.35,1.35,0,0,0-.15-.76.47.47,0,0,0-.4-.19,1.4,1.4,0,0,0-1.59.32,1.41,1.41,0,0,1-.61.08l-.38.19a1,1,0,0,0-.4.66c-.34.93.13,1.94-.22,2.94a.42.42,0,0,1-.39.41,2.9,2.9,0,0,1-3-1.14,1,1,0,0,0-.45-.2,1.41,1.41,0,0,0-1.26.67,1.87,1.87,0,0,0-.34,1c-.13.33,0,.75-.2,1.07-.08.14-.08.34-.15.4s-.18.35-.38.48-.09.25-.15.39a1.31,1.31,0,0,1-.8.6,1.89,1.89,0,0,1-1,.06c-.53-.18-1-.39-1.47-.6s-.53-.79-.88-1.13c0-.06,0-.2,0-.33s-.2,0-.2-.13,0-.4-.11-.61A1.88,1.88,0,0,1,93.89,34.28Zm11.82,5c-1.12.36-2.15.79-3.26,1.05a2.43,2.43,0,0,0-1.09.61,1.82,1.82,0,0,0-.45.72,1.47,1.47,0,0,0-.08,1.2c.28.41.74.94,1.14.6.2-.14.48-.07.61-.19s.44-.13.66-.27c.41-.25.91-.34,1.32-.61.2-.13.61-.13.74-.26.52-.39,1.13-.47,1.66-.87.08-.12.4-.08.61-.22a11.21,11.21,0,0,0,1.27-.71,5.88,5.88,0,0,1,1.53-.6c.2,0,.4-.33.6-.4a5.63,5.63,0,0,0,1.15-.46c.1-.06.31-.06.46-.28s.32,0,.53-.13c.67-.26,1.4,0,2.06-.26.33-.15.73-.47.46-.94-.06-.12-.27-.12-.4-.26a4.15,4.15,0,0,0-.91-.13,1.93,1.93,0,0,0-1.21,0,23,23,0,0,0-3,.66,2.69,2.69,0,0,0-1.06.74c-.27.39-.67.19-1,.32s-.71.07-1.06.22S106.1,39.14,105.71,39.3Zm-2.53,7.78c.08,0,.06-.11.06-.19-.22-.2-.13-.54-.41-.67a1.17,1.17,0,0,0-1.06.21,2.59,2.59,0,0,0-.73.87c-.13.34-.34.65-.21,1.05a2.05,2.05,0,0,0,.53.53c.29.08.48-.2.61-.33a6.33,6.33,0,0,0,1.14-1.12C103.18,47.35,103,47.15,103.18,47.08Zm5.12-2a7.43,7.43,0,0,0-1.87,3.53c-.13.59.26,1,.75,1.27a.34.34,0,0,0,0-.15,2.48,2.48,0,0,0,.77,0c0-.06.11-.06.11-.19a.77.77,0,0,0,.53-.21,4,4,0,0,1,.41-.2,4.6,4.6,0,0,1,1.53-.52c.07-.08.13-.08.13-.22a1.42,1.42,0,0,0,1.14-1.33,17.78,17.78,0,0,0-.15-3.92.84.84,0,0,0-.65-.6,1.73,1.73,0,0,0-1.28.65c0,.08-.06.2-.06.27-.59.47-.86,1.14-1.4,1.62"/><path class="cls-1" d="M3.65,11.18c-.21,0-.21,0-1-.71a5.73,5.73,0,0,0-.8-.56.66.66,0,0,1-.45-.61,1.18,1.18,0,0,1,.41-.76,6.23,6.23,0,0,1,2-1.26s0-.11,0-.22l0-.3c0-.54,0-.56.08-1.67a7.42,7.42,0,0,1-.77,0h-.1A2.14,2.14,0,0,1,1.14,4.05a.09.09,0,0,1,0-.12l.13-.12a.07.07,0,0,1,.12,0,2,2,0,0,0,1.41.63h0A5.48,5.48,0,0,0,4,4.32C4,4,4,3.46,4,3.25,4,2,3.9,1.76,3.09,1.61A.12.12,0,0,1,3,1.54a.1.1,0,0,1,0-.1.75.75,0,0,1,.54-.18A3,3,0,0,1,5,1.61a.57.57,0,0,1,.31.48c0,.1,0,.11-.15.37a4.21,4.21,0,0,0-.39,1.66,3.25,3.25,0,0,0,1.2-.63.66.66,0,0,1,.36-.14,1.55,1.55,0,0,1,.51.12.44.44,0,0,1,.26.37c0,.24-.19.36-.62.56A9.75,9.75,0,0,1,4.67,5c0,.11,0,.17,0,.55v.2c0,.31,0,.74-.07,1.29a9.16,9.16,0,0,1,3.07-.59h.14c1.77,0,2.85.9,2.83,2.27A2.21,2.21,0,0,1,8.38,10.9c-1.23,0-2.07-.81-2.5-2.31A.1.1,0,0,1,6,8.48l.18-.06h0a.08.08,0,0,1,.08.05A3.83,3.83,0,0,0,7,9.54,1.58,1.58,0,0,0,8.06,10h0A1.48,1.48,0,0,0,9.55,8.42C9.57,7.27,8.63,7,7.83,7h0a8.08,8.08,0,0,0-3.34.83c0,1.23,0,1.23,0,1.61s0,.36,0,.46a1.64,1.64,0,0,1-.19.79.85.85,0,0,1-.68.49Zm.09-3A4.67,4.67,0,0,0,2.69,9c-.31.31-.36.46-.36.53s.11.18.43.3A2.35,2.35,0,0,0,3.5,10h0c.06,0,.12,0,.13-.22C3.69,9,3.73,8.45,3.74,8.19ZM8.59,5a.08.08,0,0,1-.08,0l-.08-.13a.08.08,0,0,1,0-.07s0,0,0-.06A9.68,9.68,0,0,0,9.76,4a1.74,1.74,0,0,0-.69-.68A4,4,0,0,0,8.23,3a.08.08,0,0,1-.06-.1V2.73a.1.1,0,0,1,.1-.08h0a4.17,4.17,0,0,1,1.86.49A1.49,1.49,0,0,1,11,4.33a.43.43,0,0,1-.46.44.77.77,0,0,1-.22,0l-.24,0h0A8.89,8.89,0,0,0,8.61,5Z"/><path class="cls-1" d="M18.77,11a.39.39,0,0,1-.42-.38c0-.3,0-.31-1.32-1.41a.11.11,0,0,1,0-.13L17.13,9a.13.13,0,0,1,.07,0l.05,0a5.81,5.81,0,0,0,1.87.87h0c.24,0,.42-.24.74-1a9.48,9.48,0,0,0,.78-3.3c0-.78-.17-1-.77-1h0a4.15,4.15,0,0,0-1.27.23,12.75,12.75,0,0,1-.69,1.63l-.77,1.73c-.52,1.18-.94,2-1.15,2.4a.45.45,0,0,1-.38.28c-.29,0-.45-.36-.44-1A.88.88,0,0,1,15.48,9a7.94,7.94,0,0,0,.93-1.44c.49-.9.49-.9,1-2l.29-.6a7.74,7.74,0,0,0-1.4.54.73.73,0,0,1-.4.14.94.94,0,0,1-.62-.42,2.08,2.08,0,0,1-.42-1,1.14,1.14,0,0,1,.09-.3.09.09,0,0,1,.08-.06h0a.1.1,0,0,1,.08,0c.24.5.43.64.85.65h0a13.17,13.17,0,0,0,2.1-.39,8.06,8.06,0,0,0,.47-1.95c0-.3-.13-.5-.88-.76a.11.11,0,0,1-.06-.07.1.1,0,0,1,0-.09.64.64,0,0,1,.41-.14,3.5,3.5,0,0,1,.88.19c.77.23.92.53.92.75s0,.19-.2.41A10.94,10.94,0,0,0,18.94,4a4.23,4.23,0,0,1,.85-.09c1.2,0,1.74.69,1.71,2.06a8,8,0,0,1-1.45,4.5,1.88,1.88,0,0,1-1.26.57Zm6.42-2.88a.52.52,0,0,1-.33-.1.67.67,0,0,0-.46-.12h-.25c-.26,0-.48,0-1.3.08h0A.08.08,0,0,1,22.76,8l-.05-.18a.09.09,0,0,1,.06-.11c1.18-.34,1.49-.43,1.84-.57A2.94,2.94,0,0,0,24.26,6a3.43,3.43,0,0,0-1.63-1.65l-.05,0a.15.15,0,0,1,0-.07L22.7,4a.07.07,0,0,1,.07,0h0a4.49,4.49,0,0,1,2.3,1.57,3,3,0,0,1,.69,1.83c0,.47-.23.76-.59.76Z"/><path class="cls-1" d="M33.82,12a.09.09,0,0,1-.08-.05l-.1-.17a.1.1,0,0,1,0-.12A5.73,5.73,0,0,0,35.4,9.81a7.82,7.82,0,0,0,.84-4.14V5.16A6.89,6.89,0,0,1,35,5.27h-.11a2.42,2.42,0,0,1-2-.92.09.09,0,0,1,0-.12l.12-.15a.11.11,0,0,1,.07,0l.06,0a2,2,0,0,0,1.36.48h0a7.42,7.42,0,0,0,1.67-.2V4a4.6,4.6,0,0,0-.11-1.66c-.1-.22-.43-.4-1-.54a.09.09,0,0,1-.07-.06.12.12,0,0,1,0-.1.79.79,0,0,1,.63-.19h.11c.95,0,1.56.3,1.55.73a1.55,1.55,0,0,1-.07.31,5.55,5.55,0,0,0-.18,1.62,2.64,2.64,0,0,0,1-.47.49.49,0,0,1,.3-.1c.47,0,.84.22.83.48s-.15.3-.48.46a8.79,8.79,0,0,1-1.63.5l0,1.73c0,1.93-.38,3-1.34,3.94A6.39,6.39,0,0,1,33.86,12ZM31,10.84c-.21,0-.42-.18-.58-.5a7,7,0,0,1-.54-3.23,15.24,15.24,0,0,1,.31-2.79,8.81,8.81,0,0,0,.23-1.51A2,2,0,0,0,30,1.68a.09.09,0,0,1,.08-.14h0a1.34,1.34,0,0,1,.86.53,1.69,1.69,0,0,1,.54,1,1.61,1.61,0,0,1-.19.7,10.34,10.34,0,0,0-.69,3.36,5.18,5.18,0,0,0,.17,1.67c.25-.63.87-2.22,1.07-2.79a.08.08,0,0,1,0,0H32l.18.07a.1.1,0,0,1,.06.11,24.21,24.21,0,0,0-.81,3.68V10a1.56,1.56,0,0,1,0,.2c0,.16,0,.66-.41.66Zm7.89-7.63c-.19,0-.2,0-.55-.71a4.66,4.66,0,0,0-1-1.31.11.11,0,0,1,0-.13l.1-.13a.12.12,0,0,1,.08,0h0a8.54,8.54,0,0,1,1.21.74,1.08,1.08,0,0,1,.56.91c0,.39-.17.66-.4.66Zm1.18-.78c-.15,0-.25-.12-.36-.32A4.19,4.19,0,0,0,38.47.56a.08.08,0,0,1,0-.12l.09-.13a.09.09,0,0,1,.07,0h0a4.34,4.34,0,0,1,1.48.83.78.78,0,0,1,.35.66c0,.39-.18.66-.41.66Z"/><path class="cls-1" d="M47.76,11.19a7.77,7.77,0,0,1-2.42-.38,2.32,2.32,0,0,1-1.78-2.12c0-1.25,1.22-2,3.21-2h.14A9.4,9.4,0,0,1,49.16,7a10,10,0,0,0-1.32-2.49,8.64,8.64,0,0,1-2.33.34h-.12a2.82,2.82,0,0,1-2.31-1.15.11.11,0,0,1,0-.13l.14-.12.06,0,.06,0a2.9,2.9,0,0,0,1.89.69h0a8.44,8.44,0,0,0,2.1-.3,6.27,6.27,0,0,0-1.56-1.49c-.36-.21-.51-.33-.5-.57s.34-.53.89-.53a4.58,4.58,0,0,1,1.5.29.08.08,0,0,1,0,.05.15.15,0,0,1,0,.07l-.07.18a.09.09,0,0,1-.09.06h0L47,1.85h0c-.25,0-.29,0-.29,0s.34.43.47.59.43.53.88,1.13l.72-.27c.25-.11.46-.2.77-.37a8.93,8.93,0,0,0-.87-.64.08.08,0,0,1,0-.12l.08-.14a.12.12,0,0,1,.08,0h0a5.73,5.73,0,0,0,1.34.4h.12a.69.69,0,0,1,.52.15.48.48,0,0,1,.12.33c0,.25-.28.45-.73.7a11.72,11.72,0,0,1-1.71.7A30,30,0,0,1,50.12,6.9a1.88,1.88,0,0,1,.27,1c0,.36,0,.73-.43.73-.17,0-.27,0-.45-.24a3.22,3.22,0,0,0-.78-.57,5.31,5.31,0,0,0-2.17-.49h0c-1.39,0-2.2.49-2.21,1.3a1.28,1.28,0,0,0,.88,1.16,4.74,4.74,0,0,0,1.66.3h.18a4.65,4.65,0,0,0,.87-.07l.16,0a1,1,0,0,1,.84.76c0,.39-.3.46-1,.46Z"/><path class="cls-1" d="M57.4,11.38a3,3,0,0,1-1.54-.4,1.24,1.24,0,0,1-.6-1c0-.9,1.16-1.52,2.78-1.52h.11a4.88,4.88,0,0,1,.52,0V7.69l0-1-.73,0a3.58,3.58,0,0,1-1.76-.32,1.14,1.14,0,0,1-.57-1c0-.08,0-.19,0-.31s.05-.12.1-.12l.19,0a.08.08,0,0,1,.08.09c0,.35.06.5.22.63A2.5,2.5,0,0,0,57.61,6h.11c.29,0,.57,0,1-.06l0-.06h-.1l0-.71V4.21c-.53,0-1,.06-1.3.06h-.19a2.4,2.4,0,0,1-2.33-1.13.08.08,0,0,1,0-.12L55,2.89a.08.08,0,0,1,.07,0,.07.07,0,0,1,.06,0,2.41,2.41,0,0,0,1.9.67h.18a12.48,12.48,0,0,0,1.48-.1c0-1.82-.12-1.9-1-2a.12.12,0,0,1-.08-.06.1.1,0,0,1,0-.1.68.68,0,0,1,.59-.21,4,4,0,0,1,1.15.18c.22.08.47.21.47.5,0,.1,0,.1-.18.46a3.45,3.45,0,0,0-.22,1.14,5.71,5.71,0,0,0,2.13-.65.47.47,0,0,1,.2-.06,1.55,1.55,0,0,1,.69.24.44.44,0,0,1,.24.37c0,.25-.27.35-1,.52a22.77,22.77,0,0,1-2.28.39c0,.26,0,.43,0,.68s0,.56,0,1a9.05,9.05,0,0,0,1.28-.29,1.8,1.8,0,0,0,.59-.28.38.38,0,0,1,.22-.06,1.4,1.4,0,0,1,.69.21.34.34,0,0,1,.19.31c0,.3-.25.41-1,.6a14.11,14.11,0,0,1-1.93.32c0,.29,0,.48,0,.7v.31c0,.43,0,.62.05.89a6.29,6.29,0,0,1,2.65,1.1,1.14,1.14,0,0,1,.37.89c0,.31-.15.51-.36.51s-.24-.07-.56-.38a6.7,6.7,0,0,0-1-.76,4.67,4.67,0,0,0-1.07-.49,3.57,3.57,0,0,1,0,.42,1.33,1.33,0,0,1-.47,1.09,2.85,2.85,0,0,1-1.64.44Zm.23-2.26a3.51,3.51,0,0,0-1.24.21c-.41.15-.61.36-.61.63a.49.49,0,0,0,.3.44,2.09,2.09,0,0,0,.93.19h0a2,2,0,0,0,1.34-.39.87.87,0,0,0,.25-.58,3.29,3.29,0,0,0,0-.45c-.38,0-.6,0-.93-.05L57.63,9Z"/><path class="cls-1" d="M74,11.16a5.15,5.15,0,0,1-2.53-.94,3.33,3.33,0,0,1-1.41-2.85,4.56,4.56,0,0,1,1.41-3A5.25,5.25,0,0,1,73,3.21a21.63,21.63,0,0,0-3,.71,12.58,12.58,0,0,0-2,.75,1,1,0,0,1-.52.17,1.43,1.43,0,0,1-1-.78,2,2,0,0,1-.32-.88.66.66,0,0,1,.16-.38.09.09,0,0,1,.08,0h0a.11.11,0,0,1,.07.06,1.38,1.38,0,0,0,.37.61.61.61,0,0,0,.49.19h0A20.28,20.28,0,0,0,70.78,3c.52-.12,1.18-.25,2-.39a13.88,13.88,0,0,0,1.65-.38,2,2,0,0,1,.45-.09,1.72,1.72,0,0,1,.71.28c.28.19.39.35.39.55s-.19.39-.47.39h-.24a1.39,1.39,0,0,0-.33,0h0a4.23,4.23,0,0,0-4.09,3.89,2.38,2.38,0,0,0,1.52,2.36,3.6,3.6,0,0,0,1.21.31.75.75,0,0,1,.57.23,1,1,0,0,1,.38.66c0,.25-.22.43-.53.43Zm1.27-4.69c-.17,0-.21-.08-.44-.52a6.06,6.06,0,0,0-1.09-1.42.08.08,0,0,1,0-.12l.11-.15a.11.11,0,0,1,.07,0h0a6.79,6.79,0,0,1,1.23.71,1,1,0,0,1,.5.84c0,.4-.17.69-.4.69Zm1.25-.65c-.17,0-.26-.17-.32-.32A4,4,0,0,0,74.94,4a.11.11,0,0,1,0-.12L75,3.79a.1.1,0,0,1,.08,0h0a5.23,5.23,0,0,1,1.23.52,1,1,0,0,1,.57.87c0,.4-.17.68-.39.68Z"/><path class="cls-1" d="M83,11.48a.87.87,0,0,1-.51-.13.52.52,0,0,1-.18-.42c0-1.18,1.71-4.82,3.71-8l-3.5-.06c-.58,0-.76.1-1,.48a4.26,4.26,0,0,0-.37,1.09.1.1,0,0,1-.09.07l-.4,0a.1.1,0,0,1-.07,0,.08.08,0,0,1,0-.07L81,1.72a.09.09,0,0,1,.09-.08L87,1.75a.09.09,0,0,1,.09.09v.78a19.9,19.9,0,0,0-2,3.77,18,18,0,0,0-.82,2.48,9.85,9.85,0,0,0-.27,1.91c0,.52-.24.7-.84.7Z"/><path class="cls-1" d="M92,11.47A2.84,2.84,0,0,1,89.42,9.9a7.72,7.72,0,0,1-.68-3.48A7.64,7.64,0,0,1,89.54,3a2.82,2.82,0,0,1,2.53-1.48,2.84,2.84,0,0,1,2.59,1.57,7.44,7.44,0,0,1,.68,3.48,7.58,7.58,0,0,1-.8,3.46A2.79,2.79,0,0,1,92,11.47ZM92.09,2c-1.28,0-1.87,1.37-1.92,4.44s.5,4.46,1.8,4.48h0c1.32,0,1.91-1.36,2-4.42S93.42,2.05,92.12,2l0-.09Z"/><path class="cls-1" d="M98.12,11.75h-.05l-.15-.1a.09.09,0,0,1,0-.13,7.78,7.78,0,0,0,1.3-3.24,34.7,34.7,0,0,0,.33-4.42c0-1.11,0-2.13,0-2.7a.09.09,0,0,1,0-.08l0,0h0a5.89,5.89,0,0,1,.93.56l6.32.1a4.49,4.49,0,0,1,.49-.51l.06,0,.06,0c.32.23.41.31.71.55a.34.34,0,0,1,.15.23c0,.08-.07.16-.46.43l0,5.46c0,.38,0,.78,0,1.28,0,.8,0,.92,0,1.45s-.12.67-.4.82a3.93,3.93,0,0,1-1.06.27h0l0,0a.1.1,0,0,1,0-.07c0-.16,0-.17-.11-.27-.28-.38-.41-.43-1.29-.55a.11.11,0,0,1-.08-.1v-.19a.07.07,0,0,1,0-.06l.06,0,1.79.1.15-.07.08-4.65a.22.22,0,0,1-.18.07l-5.24-.09a7.63,7.63,0,0,0-.85,0h0a.09.09,0,0,1-.09-.07l-.1-.44a.11.11,0,0,1,0-.08.07.07,0,0,1,.06,0h0a7.86,7.86,0,0,0,1,.11l1.57,0,0-1.33-1.23,0a5.71,5.71,0,0,0-.75,0h0A.08.08,0,0,1,101,4l-.12-.45a.14.14,0,0,1,0-.09.09.09,0,0,1,.06,0h0a4.64,4.64,0,0,0,.88.12l1.21,0v-.5c0-.23,0-.42,0-.79a.24.24,0,0,1,0-.12l0,0-2.65,0c-.05,1.76-.08,2.79-.09,3.11a10.9,10.9,0,0,1-.94,4.75,6.82,6.82,0,0,1-1.33,1.8A.07.07,0,0,1,98.12,11.75Zm7.74-7.08.06,0,.54.48.41.37.06.08L107,2.18l-3.63-.07c1,.16,1.26.24,1.26.43s-.09.19-.53.36v.68h1l.2-.28.34-.38a.09.09,0,0,1,.07,0h0a.07.07,0,0,1,.06,0l.84.83.06.16c0,.09-.1.15-.19.15l-2.34,0,0,1.33,1.24,0,.23-.35.28-.34a.07.07,0,0,1,.06,0Zm-4,5.68,0,.1c-.3,0-.41-.09-.4-.25,0-.63.06-1.5.07-2.32,0-.3,0-.3,0-.89V6.35a.1.1,0,0,1,0-.08h.09l.29.17.59.35,2.23,0a1.76,1.76,0,0,1,.34-.47.09.09,0,0,1,.07,0l0,0a5.79,5.79,0,0,1,.7.52c.15.15.18.18.18.24s0,.09-.4.39c0,.46,0,.84,0,1,0,.52,0,.77,0,1.4,0,.29-.16.3-.7.32a.25.25,0,0,1-.28-.28V9.4l-2.28,0,0,.8c-.06.26-.25.28-.54.29h0Zm2.86-1.41,0-1.66-2.29,0,0,1.66Z"/><path class="cls-1" d="M117.12,12c-.23,0-.42,0-.43-.28,0-.43.08-1.33.09-1.72l0-1.39-4.4-.08c-.32,0-.75,0-1,0h0a.09.09,0,0,1-.09-.08L111.24,8a.11.11,0,0,1,0-.08l.07,0h0a6.84,6.84,0,0,0,1.19.11l.93,0,0-2.21a11.25,11.25,0,0,0,0-1.22.09.09,0,0,1,0-.08l0,0h0a10.53,10.53,0,0,1,1.06.6l2.17,0,0-2-2.63,0a10.38,10.38,0,0,1-2.42,2.59.07.07,0,0,1-.06,0,.11.11,0,0,1-.07,0l-.11-.13a.11.11,0,0,1,0-.13,8,8,0,0,0,1.09-1.36A12.42,12.42,0,0,0,114.34.83a.12.12,0,0,1,0,0h.07c1.4.48,1.45.51,1.45.68a.26.26,0,0,1-.14.21,2,2,0,0,1-.57.1l-.57.88,5.41.1A6.27,6.27,0,0,1,120.7,2a.09.09,0,0,1,.06,0,.08.08,0,0,1,.06,0l.14.12c.37.29.53.42,1,.79a.26.26,0,0,1,.09.17.2.2,0,0,1-.22.18l-3.86-.07,0,2,1.7,0,.3-.35.36-.37a.09.09,0,0,1,.07,0l.06,0,.21.18c.28.24.44.37.79.69.06.06.09.11.08.17s-.12.18-.23.18l-3.34-.06,0,2.5,2.41,0a5.22,5.22,0,0,1,.52-.6l.19-.2.07,0a.07.07,0,0,1,.06,0c.49.39.64.51,1.09.91.07.08.1.13.1.18a.21.21,0,0,1-.22.2l-4.23-.07,0,1.39c0,.35,0,.4,0,1.66,0,.27-.24.32-.61.32Zm-.31-3.85,0-2.5-2.29,0,0,2.5Z"/></svg>