<svg xmlns="http://www.w3.org/2000/svg" viewBox="0 0 30 24" width="30px" height="24px"><defs><style>.cls-1{fill:#6B7BBB;}</style></defs><title>a</title><g id="base"><path class="cls-1" d="M18.79,23.56a23.67,23.67,0,0,0-.9-3.09l-1.47-3.71H6.19L4.75,20.47a16.33,16.33,0,0,0-.93,3.09H.19a25.07,25.07,0,0,0,1.59-3.48L8.47,3.29a17.22,17.22,0,0,0,1-2.85h3.66a20.64,20.64,0,0,0,1,2.85l6.72,16.79a27.12,27.12,0,0,0,1.59,3.48ZM11.92,4.7l-.63-1.86c-.15.42-.27.78-.33,1-.15.42-.24.72-.3.87L7,14.29h8.55Z"/><path class="cls-1" d="M29.81,20.18v3.38H26.42V20.18Z"/></g></svg>