<svg xmlns="http://www.w3.org/2000/svg" viewBox="0 0 29 26" width="29px" height="26px"><defs><style>.cls-1{fill:#00A99D;}</style></defs><title>q</title><g id="base"><path class="cls-1" d="M18.84,25.75a23.7,23.7,0,0,0-2.7-2.88,9.82,9.82,0,0,1-5.34,1.41C4.35,24.28.21,19.6.21,12.31S4.38.25,10.86.25s10.56,4.68,10.56,12a14.41,14.41,0,0,1-1.05,5.7A10,10,0,0,1,18,21.4a21.08,21.08,0,0,0,2.64,2.4ZM13.65,17c.48.57,1.11,1.2,2.4,2.49a6.7,6.7,0,0,0,1.53-2.31,13,13,0,0,0,.9-4.95c0-3.24-.87-5.82-2.55-7.5a7,7,0,0,0-5.07-2c-4.71,0-7.74,3.72-7.74,9.51s3.06,9.54,7.77,9.54A6.52,6.52,0,0,0,14.22,21a19,19,0,0,0-2.43-2.13Z"/><path class="cls-1" d="M28.79,20.44v3.39H25.4V20.44Z"/></g></svg>