<svg id="base" xmlns="http://www.w3.org/2000/svg" viewBox="0 0 126 98" width="126" height="98"><defs><style>.cls-1{fill:#fff;}</style></defs><title>アートボード 10</title><path class="cls-1" d="M68.34,19.27a7.16,7.16,0,0,0-3.71,1L84,39.62a6.69,6.69,0,0,1,.59,8.9,6.51,6.51,0,0,1-9.64.47L63,37.67,32.85,67.23a4.41,4.41,0,0,0,6.24,6.24L51.85,60.71a1,1,0,1,1,1.48,1.48L40.57,75a4.41,4.41,0,1,0,6.24,6.24L59.57,68.44a1,1,0,1,1,1.48,1.48L48.3,82.68a4.41,4.41,0,1,0,6.24,6.24L67.29,76.16a1,1,0,1,1,1.48,1.48L56,90.4a4.41,4.41,0,0,0,.32,6.53,4.48,4.48,0,0,0,5.14.25,6.5,6.5,0,0,1,6.73-10,6.55,6.55,0,0,1-.15-1.36,6.51,6.51,0,0,1,6.51-6.51,6.56,6.56,0,0,1,1.36.15,6.5,6.5,0,0,1,7.73-7.72,6.5,6.5,0,0,1,10.16-6.64l7.36-7.36a12.16,12.16,0,0,0,3.58-8.65V42.58L81.47,19.27Z"/><path class="cls-1" d="M32.11,65,62.27,35.46a1,1,0,0,1,1.46,0l0,0,.76.72L76.38,47.5a4.43,4.43,0,0,0,3.35,1.3,4.38,4.38,0,0,0,3.2-1.61,4.57,4.57,0,0,0-.46-6.08s-20.61-20.49-21-20.71a7.15,7.15,0,0,0-3.85-1.12H44.53L21.23,42.58v6.48a12.16,12.16,0,0,0,3.58,8.65L32.11,65Z"/><rect class="cls-1" x="92.15" y="2.34" width="22.89" height="39.83" transform="translate(14.61 79.77) rotate(-45)"/><rect class="cls-1" x="2.49" y="10.8" width="39.83" height="22.89" transform="translate(-9.17 22.36) rotate(-45)"/><circle class="cls-1" cx="90.03" cy="70.35" r="4.41" transform="translate(-23.37 84.27) rotate(-45)"/><circle class="cls-1" cx="82.31" cy="78.07" r="4.41" transform="translate(-31.1 81.07) rotate(-45)"/><circle class="cls-1" cx="74.59" cy="85.79" r="4.41" transform="translate(-38.82 77.87) rotate(-45)"/><circle class="cls-1" cx="66.86" cy="93.52" r="4.41" transform="translate(-46.55 74.67) rotate(-45)"/></svg>