<svg id="base" xmlns="http://www.w3.org/2000/svg" viewBox="0 0 106 111" width="106" height="111"><defs><style>.cls-1{fill:#fff;}</style></defs><title>アートボード 9</title><path class="cls-1" d="M96.64,90.56a20.71,20.71,0,0,1-9.29,9.29,20.71,20.71,0,0,1,9.29,9.29,20.71,20.71,0,0,1,9.29-9.29A20.71,20.71,0,0,1,96.64,90.56Z"/><path class="cls-1" d="M14.42.17A29.13,29.13,0,0,1,.08,14.52,29.14,29.14,0,0,1,14.42,28.86,29.14,29.14,0,0,1,28.77,14.52,29.13,29.13,0,0,1,14.42.17Z"/><path class="cls-1" d="M43.68,10.11H34.07c-2.48,29.66-4,64.19-4.38,100.72h6C36.2,81.08,37.8,53.58,40.34,32Q41.86,19,43.68,10.11Z"/><path class="cls-1" d="M24.09,19.94C22.68,47.56,21.77,78,21.51,110.83h6c.37-34.21,1.71-66.68,3.92-95.05A27.19,27.19,0,0,0,24.09,19.94Z"/><path class="cls-1" d="M15.51,32v78.87h3.84c.26-30.28,1.13-60.45,2.56-88.94A27.11,27.11,0,0,0,15.51,32Z"/><path class="cls-1" d="M31.62,13.34c.09-1.08.17-2.17.26-3.23H25.44A27.26,27.26,0,0,0,31.62,13.34Z"/><path class="cls-1" d="M45.92,10.11c-3.87,19-7.3,53.19-8,100.72H43.7c.22-17.34,1-33.38,2.33-45.94C48.52,40.8,51.62,40.8,52.94,40.8s4.42,0,6.92,24.09c1.3,12.56,2.11,28.6,2.33,45.94H68c-.74-47.53-4.17-81.7-8-100.72Z"/><path class="cls-1" d="M86.54,110.83h3.83v-6.3a18.56,18.56,0,0,0-3.93-2.68Q86.5,106.33,86.54,110.83Z"/><path class="cls-1" d="M90.1,10.11H83.36C84.94,38,86,67.77,86.4,97.88a18.57,18.57,0,0,0,4-2.71V16.79Q90.24,13.44,90.1,10.11Z"/><path class="cls-1" d="M84.21,100.87a1.09,1.09,0,0,1,0-2.05l0,0c-.41-32.12-1.45-61.84-3-88.7H74c2.48,29.68,4,64.2,4.37,100.72h6c0-3.34-.06-6.64-.1-9.93Z"/><path class="cls-1" d="M62.21,10.11Q64,19,65.55,32c2.54,21.61,4.14,49.11,4.62,78.85h6c-.39-36.53-1.9-71.06-4.38-100.72Z"/><path class="cls-1" d="M52.94,43.15c-2.68,1.79-6.41,26.34-6.93,67.67H59.87C59.35,69.49,55.63,44.94,52.94,43.15Z"/></svg>