<svg id="base" xmlns="http://www.w3.org/2000/svg" viewBox="0 0 118 75" width="118" height="75"><defs><style>.cls-1{fill:#fff;}</style></defs><title>アートボード 7</title><rect class="cls-1" x="7.55" y="60.08" width="72.45" height="2.1"/><rect class="cls-1" x="0.2" y="21.22" width="5.25" height="53.55"/><path class="cls-1" d="M67.4,19.13V6.52H.2V18.69a.44.44,0,0,0,.44.44Z"/><path class="cls-1" d="M69.5,19.13h47.86a.44.44,0,0,0,.44-.44V6.52H69.5Z"/><path class="cls-1" d="M117.36.22H.64A.44.44,0,0,0,.2.66V4.42H117.8V.66A.44.44,0,0,0,117.36.22Z"/><path class="cls-1" d="M117.36,21.22H82.54a.44.44,0,0,0-.44.44V74.34a.44.44,0,0,0,.44.44h34.82a.44.44,0,0,0,.44-.44V21.66A.44.44,0,0,0,117.36,21.22ZM95.75,24.38h8.4a1,1,0,1,1,0,2.1h-8.4a1,1,0,1,1,0-2.1ZM104.15,59h-8.4a1,1,0,1,1,0-2.1h8.4a1,1,0,1,1,0,2.1Zm10.08-4.27H85.67a1,1,0,1,1,0-2h28.56a1,1,0,1,1,0,2ZM94.7,41.17a1,1,0,0,1,1-1h8.4a1,1,0,1,1,0,2.1h-8.4A1,1,0,0,1,94.7,41.17ZM114.23,38H85.67a1,1,0,1,1,0-2h28.56a1,1,0,1,1,0,2Z"/></svg>