<svg id="base" xmlns="http://www.w3.org/2000/svg" viewBox="0 0 90 90" width="90" height="90"><defs><style>.cls-1{fill:#fff;}</style></defs><title>アートボード 8</title><path class="cls-1" d="M45,.07A44.93,44.93,0,1,0,89.93,45,44.93,44.93,0,0,0,45,.07ZM40,16.19a7.3,7.3,0,0,1,12.47,5.18A7.3,7.3,0,0,1,40,26.56a7.06,7.06,0,0,1-2.14-5.18A7.06,7.06,0,0,1,40,16.19Zm16.2,55.35H33.76V69.28A7,7,0,0,0,37.17,68q1.38-1.25,1.38-4.47v-20q0-2.88-1-3.93a7,7,0,0,0-3.83-1.56V35.8H51.87V63.94q0,3.09.92,4a7.24,7.24,0,0,0,3.46,1.38Z"/></svg>