<svg id="base" xmlns="http://www.w3.org/2000/svg" viewBox="0 0 145 91" width="145" height="91"><defs><style>.cls-1{fill:#fff;}</style></defs><title>アートボード 13</title><rect class="cls-1" x="39.57" y="11.06" width="5.83" height="5.83"/><rect class="cls-1" x="59.58" y="11.06" width="5.83" height="5.83"/><rect class="cls-1" x="79.59" y="11.06" width="5.83" height="5.83"/><rect class="cls-1" x="99.6" y="11.06" width="5.83" height="5.83"/><rect class="cls-1" x="39.57" y="31.15" width="5.83" height="5.83"/><rect class="cls-1" x="59.58" y="31.15" width="5.83" height="5.83"/><rect class="cls-1" x="79.59" y="31.15" width="5.83" height="5.83"/><rect class="cls-1" x="99.6" y="31.15" width="5.83" height="5.83"/><rect class="cls-1" x="39.57" y="51.23" width="5.83" height="5.83"/><rect class="cls-1" x="59.58" y="51.23" width="5.83" height="5.83"/><rect class="cls-1" x="79.59" y="51.23" width="5.83" height="5.83"/><rect class="cls-1" x="99.6" y="51.23" width="5.83" height="5.83"/><path class="cls-1" d="M118.42,88.61V28.24h5.18v8.49h8V.29h-8V8.78h-5.18V.29H26.58V88.61H.18v2.1H144.82v-2.1Zm0-76.83h5.18V25.24h-5.18ZM77.49,9h10V19h-10Zm0,20.08h10v10h-10Zm0,20.08h10v10h-10ZM57.48,9h10V19h-10Zm0,20.08h10v10h-10Zm0,20.08h10v10h-10Zm-10,10h-10v-10h10Zm0-20.08h-10V29h10ZM47.5,19h-10V9h10ZM88.17,88.61h-2.1V70.27H73.55V88.61h-2.1V70.27H58.93V88.61h-2.1V68.17H88.17Zm19.36-29.45h-10v-10h10Zm0-20.08h-10V29h10Zm0-20.08h-10V9h10Z"/></svg>