<svg id="base" xmlns="http://www.w3.org/2000/svg" viewBox="0 0 129 64" width="129" height="64"><defs><style>.cls-1{fill:#fff;}</style></defs><title>アートボード 6</title><path class="cls-1" d="M63.5,1.83A1.84,1.84,0,0,0,61.67,0H16.33A1.84,1.84,0,0,0,14.5,1.83V38h49Z"/><path class="cls-1" d="M112.67,0H67.33A1.84,1.84,0,0,0,65.5,1.83V38h49V1.83A1.84,1.84,0,0,0,112.67,0Z"/><path class="cls-1" d="M10.67,17H2.33A1.84,1.84,0,0,0,.5,18.83V54.17A1.84,1.84,0,0,0,2.33,56H12.5V18.83A1.84,1.84,0,0,0,10.67,17Z"/><path class="cls-1" d="M126.67,17h-8.33a1.84,1.84,0,0,0-1.83,1.83V56h10.17a1.84,1.84,0,0,0,1.83-1.84V18.83A1.84,1.84,0,0,0,126.67,17Z"/><rect class="cls-1" x="14.5" y="40" width="100" height="16"/><path class="cls-1" d="M14.5,63.58a.42.42,0,0,0,.42.42h6.17a.42.42,0,0,0,.42-.42V58h-7Z"/><path class="cls-1" d="M107.5,63.58a.42.42,0,0,0,.42.42h6.17a.42.42,0,0,0,.42-.42V58h-7Z"/></svg>