<svg id="base" xmlns="http://www.w3.org/2000/svg" viewBox="0 0 144 99" width="144" height="99"><defs><style>.cls-1{fill:#fff;}</style></defs><title>アートボード 11</title><path class="cls-1" d="M75.57,51.89V35a1.76,1.76,0,0,0-1.76-1.76h-45A1.76,1.76,0,0,0,27.08,35V70.84H75.57Z"/><path class="cls-1" d="M87.72,86.94v-35A1.76,1.76,0,0,0,86,50.13H79.44a1.76,1.76,0,0,0-1.76,1.76V88.7H86A1.76,1.76,0,0,0,87.72,86.94Z"/><path class="cls-1" d="M16.69,88.7H25V51.89a1.76,1.76,0,0,0-1.76-1.76H16.69a1.76,1.76,0,0,0-1.76,1.76v35A1.76,1.76,0,0,0,16.69,88.7Z"/><polygon class="cls-1" points="67.69 88.7 75.57 88.7 75.57 72.94 27.08 72.94 27.08 88.7 34.96 88.7 67.69 88.7"/><path class="cls-1" d="M123.37,96.64l1.28-26.56h4.09a1,1,0,0,0,1-1.15l-2.23-24.26L132,43.19a1,1,0,0,0,.7-1.18c0-.12-2.15-11.84-3.3-16.78-1.37-5.89-4.4-8.76-9.25-8.76s-7.88,2.87-9.25,8.76c-1,4.3-2.75,13.75-3.2,16.19l-10.81,4a1.05,1.05,0,0,0,.74,2L109,43.17a1,1,0,0,0,.66-.8c0-.12,2.15-11.79,3.28-16.68s3.37-7.14,7.21-7.14,6.06,2.2,7.21,7.14c1,4.09,2.6,12.94,3.12,15.78l-3.16,1,.2,2.14L122,46.52a1,1,0,0,1-.66-2l6.05-2L126.94,38a1,1,0,0,0-1-1H114.51a1,1,0,0,0-1,1l-2.85,31a1,1,0,0,0,1,1.15h4.09L117,96.64H75.57V90.8H68.75v5.84H33.91V90.8H27.08v5.84H.42v2.1H143.58v-2.1Zm-5.52-26.56h4.7l-1.28,26.56h-2.14Z"/><path class="cls-1" d="M119.81,14.32a7,7,0,0,0,5.88-10.87,2.12,2.12,0,0,1,2.33-.7c.85.41,1.23,1.61.95,3.05-.56,2.89.3,4.37,1.11,5.1a3.8,3.8,0,0,0,2.63.92,7.3,7.3,0,0,0,2.13-.35,1,1,0,1,0-.61-2c-1.26.38-2.23.34-2.74-.12s-.74-1.66-.45-3.14c.46-2.4-.36-4.5-2.1-5.34a4.07,4.07,0,0,0-4.63,1,7,7,0,1,0-4.49,12.43Z"/></svg>