<svg id="base" xmlns="http://www.w3.org/2000/svg" viewBox="0 0 109 103" width="109" height="103"><defs><style>.cls-1{fill:#fff;}</style></defs><title>アートボード 12</title><rect class="cls-1" x="37.66" y="82.53" width="23.05" height="10.46" rx="1.87" ry="1.87"/><path class="cls-1" d="M83.13.31a1.87,1.87,0,0,0-1.87,1.87V9.33a1.87,1.87,0,0,1-1.87,1.87h-.61a1.87,1.87,0,0,0-1.87,1.87V26.49a1.87,1.87,0,0,0,1.87,1.87H84.1A1.87,1.87,0,0,0,86,26.49V25.21a1.87,1.87,0,0,1,1.87-1.87H107a1.87,1.87,0,0,0,1.87-1.87V2.17A1.87,1.87,0,0,0,107,.31Z"/><path class="cls-1" d="M8.65,64.45a1.87,1.87,0,0,0-1.87,1.87V73.4a1.87,1.87,0,0,0,1.87,1.87h3a1.87,1.87,0,0,1,1.87,1.87v14A1.87,1.87,0,0,0,15.38,93H30.2a1.87,1.87,0,0,0,1.87-1.87V66.32a1.87,1.87,0,0,0-1.87-1.87Z"/><path class="cls-1" d="M76.59,62.59a1.87,1.87,0,0,1-1.87,1.87H39.53a1.87,1.87,0,0,0-1.87,1.87v8.42a1.87,1.87,0,0,0,1.87,1.87H64.77a1.87,1.87,0,0,1,1.87,1.87V91.12A1.87,1.87,0,0,0,68.5,93H83.18a1.87,1.87,0,0,0,1.87-1.87V86.44a1.87,1.87,0,0,1,1.87-1.87h3.66a1.87,1.87,0,0,1,1.87,1.87v4.69A1.87,1.87,0,0,0,94.31,93H101a1.87,1.87,0,0,0,1.87-1.87V35.6A1.87,1.87,0,0,0,101,33.74H78.46a1.87,1.87,0,0,0-1.87,1.87Z"/><rect class="cls-1" x="0.14" y="93.61" width="7.03" height="9.09" rx="1.87" ry="1.87"/></svg>